<svg viewBox="-70 -40 500 500" xmlns="http://www.w3.org/2000/svg">
<ellipse cx="252" cy="60" rx="58" ry="60" fill="red"/>
<ellipse cx="290" cy="127" rx="70" ry="33" fill="red"/>
<ellipse cx="287.5" cy="192" rx="42.5" ry="48" fill="red"/>
<ellipse cx="278.5" cy="283" rx="62.5" ry="57" fill="red"/>
<ellipse cx="202.5" cy="343" rx="52.5" ry="55" fill="red"/>
<ellipse cx="122.5" cy="334" rx="37.5" ry="40" fill="red"/>
<ellipse cx="88" cy="278" rx="28" ry="48" fill="red"/>
<ellipse cx="57" cy="216" rx="52" ry="50" fill="red"/>
<ellipse cx="40" cy="127" rx="40" ry="43" fill="red"/>
<ellipse cx="95" cy="151" rx="41" ry="41" fill="red"/>
<ellipse cx="104" cy="87" rx="40" ry="43" fill="red"/>
<ellipse cx="157" cy="44" rx="44" ry="44" fill="red"/>
<ellipse cx="266" cy="39" rx="27" ry="26" fill="white"/><ellipse cx="276.3096168696999" cy="29.072220792140875" rx="12.15" ry="12.15" fill="#0A65FF"/>
<ellipse cx="33" cy="125" rx="23" ry="23" fill="white"/><ellipse cx="24.217733777663078" cy="116.21773377766308" rx="10.35" ry="10.35" fill="#0A65FF"/>
<ellipse cx="71" cy="222" rx="23" ry="23" fill="white"/><ellipse cx="71" cy="209.57999999999998" rx="10.35" ry="10.35" fill="#0A65FF"/>
<ellipse cx="197" cy="364" rx="20" ry="20" fill="white"/><ellipse cx="197" cy="374.8" rx="9" ry="9" fill="#0A65FF"/>
<ellipse cx="304" cy="288" rx="32" ry="29" fill="white"/><ellipse cx="318.9649189773951" cy="280.17" rx="14.4" ry="14.4" fill="#0A65FF"/>
</svg>